<svg xmlns="http://www.w3.org/2000/svg" xmlns:xlink="http://www.w3.org/1999/xlink" width="500" zoomAndPan="magnify" viewBox="0 0 375 374.999991" height="500" preserveAspectRatio="xMidYMid meet" version="1.0"><defs><clipPath id="0b13061dd9"><path d="M 160 48.28125 L 337.167969 48.28125 L 337.167969 319.78125 L 160 319.78125 Z M 160 48.28125 " clip-rule="nonzero"/></clipPath><clipPath id="6c9522b90c"><path d="M 41.667969 112 L 263 112 L 263 319.78125 L 41.667969 319.78125 Z M 41.667969 112 " clip-rule="nonzero"/></clipPath></defs><g clip-path="url(#0b13061dd9)"><path fill="#d9a20a" d="M 258.769531 262.25 L 160.101562 259.210938 L 337.476562 319.671875 L 189.566406 48.335938 L 166.179688 91.242188 L 189.566406 134.4375 L 258.769531 262.25 " fill-opacity="1" fill-rule="nonzero"/></g><g clip-path="url(#6c9522b90c)"><path fill="#d9a20a" d="M 109.617188 281.097656 L 156.582031 194.941406 L 178.054688 155.554688 L 154.65625 112.378906 L 41.65625 319.671875 L 262.742188 319.671875 L 109.617188 281.097656 " fill-opacity="1" fill-rule="nonzero"/></g><path fill="#d9a20a" d="M 178.054688 155.554688 L 156.582031 194.941406 L 184.492188 246.492188 L 228.0625 247.835938 L 178.054688 155.554688 " fill-opacity="1" fill-rule="nonzero"/></svg>